<svg width="122" height="19" viewBox="0 0 122 19" xmlns="http://www.w3.org/2000/svg"><title>SOURCE</title><path d="M1.392 14.282c.607.64 1.322 1.157 2.145 1.547.823.39 1.677.584 2.56.584 1.128 0 2.003-.256 2.627-.767.624-.51.936-1.183.936-2.015 0-.433-.074-.802-.22-1.105-.148-.303-.348-.563-.6-.78-.25-.217-.55-.412-.896-.585-.347-.173-.72-.355-1.118-.546L4.382 9.55c-.4-.173-.806-.38-1.222-.624-.416-.243-.79-.537-1.118-.884-.33-.347-.598-.758-.806-1.235C1.028 6.33.924 5.78.924 5.157c0-.642.134-1.24.403-1.795.27-.555.64-1.036 1.118-1.443.477-.408 1.04-.725 1.69-.95C4.785.745 5.5.632 6.28.632c1.023 0 1.967.195 2.834.585.867.39 1.603.897 2.21 1.52l-1.17 1.405c-.52-.503-1.096-.897-1.73-1.183-.632-.287-1.347-.43-2.144-.43-.953 0-1.72.22-2.3.663-.582.442-.872 1.053-.872 1.833 0 .416.082.767.247 1.053.165.285.386.536.663.753.277.217.58.407.91.572.33.165.667.316 1.014.455L8.36 8.9c.485.208.945.446 1.378.715.433.27.806.58 1.118.936.312.356.56.772.74 1.25.183.476.274 1.026.274 1.65 0 .676-.134 1.31-.403 1.898-.27.59-.654 1.105-1.157 1.547-.503.442-1.11.79-1.82 1.04s-1.517.377-2.418.377c-1.196 0-2.305-.225-3.328-.676C1.72 17.186.837 16.57.092 15.79l1.3-1.508zm26.576 4.03c-1.075 0-2.06-.208-2.95-.624-.894-.416-1.66-1.01-2.302-1.78-.642-.772-1.14-1.708-1.495-2.81-.355-1.1-.532-2.335-.532-3.704 0-1.37.177-2.596.533-3.68.356-1.082.854-2 1.496-2.755.64-.755 1.408-1.33 2.3-1.73.893-.4 1.877-.598 2.952-.598 1.074 0 2.058.204 2.95.61.893.408 1.665.99 2.315 1.743.65.754 1.152 1.673 1.508 2.756.356 1.084.534 2.302.534 3.654 0 1.37-.178 2.604-.533 3.705-.355 1.1-.857 2.036-1.507 2.807-.65.77-1.422 1.365-2.314 1.78-.894.417-1.878.625-2.952.625zm0-1.898c.762 0 1.45-.165 2.067-.494.615-.33 1.144-.802 1.586-1.417.443-.615.785-1.352 1.028-2.21.242-.858.364-1.824.364-2.9 0-1.056-.122-2.01-.364-2.86-.243-.848-.585-1.568-1.027-2.157-.44-.59-.97-1.044-1.585-1.365-.616-.32-1.305-.48-2.067-.48-.763 0-1.452.16-2.067.48-.615.322-1.143.777-1.585 1.366-.442.59-.785 1.31-1.027 2.158-.243.85-.364 1.803-.364 2.86 0 1.075.12 2.04.364 2.9.242.857.585 1.594 1.027 2.21.442.614.97 1.087 1.586 1.416.616.33 1.305.494 2.068.494zM45.313.944h2.158v10.062c0 1.023.105 1.88.313 2.574.208.693.49 1.248.845 1.664.356.416.776.715 1.26.897.487.183 1.007.274 1.56.274.573 0 1.102-.09 1.587-.273.486-.18.91-.48 1.274-.896.363-.416.65-.97.857-1.664.208-.693.312-1.55.312-2.574V.944h2.08v10.01c0 1.37-.157 2.522-.47 3.458-.31.936-.74 1.694-1.286 2.275-.546.58-1.19.997-1.937 1.248-.745.25-1.55.377-2.418.377-.867 0-1.678-.126-2.432-.377-.754-.25-1.404-.667-1.95-1.248-.546-.58-.975-1.34-1.287-2.275-.31-.936-.467-2.09-.467-3.458V.944zM70.77 9.03h2.86c1.336 0 2.358-.273 3.07-.82.71-.545 1.065-1.373 1.065-2.482 0-1.127-.355-1.915-1.066-2.366-.712-.45-1.734-.676-3.07-.676h-2.86V9.03zM77.974 18l-4.108-7.202H70.77V18h-2.157V.944h5.33c.867 0 1.668.082 2.405.247.737.166 1.37.44 1.898.82.53.38.94.875 1.235 1.482.296.607.443 1.352.443 2.236 0 1.335-.347 2.4-1.04 3.198-.693.797-1.62 1.343-2.782 1.638L80.418 18h-2.444zm11.21-8.528c0-1.37.19-2.6.57-3.692.383-1.092.91-2.02 1.587-2.782.676-.763 1.478-1.348 2.405-1.755.928-.407 1.937-.61 3.03-.61 1.04 0 1.95.21 2.73.636.78.424 1.42.913 1.923 1.468l-1.222 1.378c-.45-.485-.95-.87-1.495-1.157-.545-.287-1.182-.43-1.91-.43-.814 0-1.55.16-2.21.48-.658.322-1.222.78-1.69 1.38-.468.597-.832 1.32-1.092 2.17-.26.85-.39 1.803-.39 2.86 0 1.075.126 2.04.377 2.9.252.857.603 1.59 1.053 2.196.45.607 1 1.075 1.65 1.404.65.33 1.384.494 2.198.494.832 0 1.556-.165 2.17-.494.617-.33 1.202-.797 1.756-1.404l1.222 1.326c-.676.78-1.438 1.387-2.288 1.82-.85.433-1.82.65-2.912.65-1.074 0-2.067-.2-2.977-.598-.91-.4-1.698-.975-2.366-1.73-.666-.753-1.186-1.68-1.56-2.78-.37-1.102-.558-2.345-.558-3.732zM111.467.944h9.828v1.82h-7.67V8.12h6.474v1.846h-6.474v6.188h7.93V18h-10.088V.944z" fill="#FFF" fill-rule="evenodd"/></svg>