<svg width="99" height="133" viewBox="0 0 99 133" xmlns="http://www.w3.org/2000/svg"><title>Shape</title><path d="M75.172 0H8.377C3.893 0 .24 3.65.24 8.13v116.31c0 4.486 3.653 8.132 8.137 8.132h81.815c4.49 0 8.14-3.646 8.14-8.132v-99.3L75.17 0zm1.92 12.166l10.15 11.02h-10.15v-11.02zM91.496 124.44c0 .716-.587 1.305-1.307 1.305H8.376c-.718 0-1.302-.59-1.302-1.305V8.13c0-.718.584-1.3 1.302-1.3h41.67V9.76h-8.84v4.932h8.84v9.678h-8.84v4.93h8.84v9.28h-8.84v4.928h8.84V51.46h-8.84v4.93h8.84v9.68h-8.84V71h8.84v9.277h-8.84v4.93h4.727c-1.807.09-3.246 1.57-3.246 3.393v1.946h.027v14.747c0 3.83 3.12 6.947 6.954 6.947 3.833 0 6.95-3.117 6.95-6.947V90.546h.005V88.6c0-1.882-1.53-3.41-3.414-3.41h-.096v-7.567h8.117l.002-4.932h-8.118v-9.276h8.117l.002-4.932h-8.118v-9.68h8.117l.002-4.93h-8.118V35.92h8.117l.002-4.93h-8.118v-9.28h8.117l.002-4.928h-8.118v-9.68h8.117l.002-.273h9.02V26.6c0 1.882 1.535 3.41 3.42 3.41h17.823v94.43zM54.11 96.596v8.24c0 2.473-2.01 4.475-4.482 4.475-2.473 0-4.48-2-4.48-4.475v-8.24h8.96z" fill="#C4C4C4" fill-rule="evenodd"/></svg>