<?xml version="1.0" encoding="UTF-8" standalone="no"?>
<svg width="122px" height="19px" viewBox="0 0 122 19" version="1.1" xmlns="http://www.w3.org/2000/svg" xmlns:xlink="http://www.w3.org/1999/xlink" xmlns:sketch="http://www.bohemiancoding.com/sketch/ns">
    <!-- Generator: Sketch 3.3.2 (12043) - http://www.bohemiancoding.com/sketch -->
    <title>SOURCE</title>
    <desc>Created with Sketch.</desc>
    <defs></defs>
    <g id="Page-1" stroke="none" stroke-width="1" fill="none" fill-rule="evenodd" sketch:type="MSPage">
        <g id="home" sketch:type="MSArtboardGroup" transform="translate(-333.000000, -38.000000)" fill="#FFFFFF">
            <path d="M334.392,52.282 C334.99867,52.9233365 335.713663,53.4389981 336.537,53.829 C337.360337,54.2190019 338.213996,54.414 339.098,54.414 C340.224672,54.414 341.099997,54.1583359 341.724,53.647 C342.348003,53.1356641 342.66,52.4640042 342.66,51.632 C342.66,51.1986645 342.586334,50.8303348 342.439,50.527 C342.291666,50.2236652 342.092335,49.9636677 341.841,49.747 C341.589665,49.5303323 341.290668,49.3353342 340.944,49.162 C340.597332,48.9886658 340.224669,48.8066676 339.826,48.616 L337.382,47.55 C336.983331,47.3766658 336.576002,47.1686679 336.16,46.926 C335.743998,46.6833321 335.371335,46.3886684 335.042,46.042 C334.712665,45.6953316 334.444001,45.2836691 334.236,44.807 C334.027999,44.3303309 333.924,43.7800031 333.924,43.156 C333.924,42.5146635 334.058332,41.9166694 334.327,41.362 C334.595668,40.8073306 334.968331,40.3263354 335.445,39.919 C335.921669,39.5116646 336.484997,39.1953345 337.135,38.97 C337.785003,38.7446655 338.499996,38.632 339.28,38.632 C340.302672,38.632 341.247329,38.8269981 342.114,39.217 C342.980671,39.6070019 343.71733,40.1139969 344.324,40.738 L343.154,42.142 C342.633997,41.6393308 342.05767,41.2450014 341.425,40.959 C340.79233,40.6729986 340.077337,40.53 339.28,40.53 C338.326662,40.53 337.55967,40.7509978 336.979,41.193 C336.39833,41.6350022 336.108,42.2459961 336.108,43.026 C336.108,43.4420021 336.190333,43.7929986 336.355,44.079 C336.519667,44.3650014 336.740665,44.6163322 337.018,44.833 C337.295335,45.0496677 337.598665,45.2403325 337.928,45.405 C338.257335,45.5696675 338.595332,45.7213326 338.942,45.86 L341.36,46.9 C341.845336,47.108001 342.304665,47.346332 342.738,47.615 C343.171335,47.883668 343.543998,48.1956649 343.856,48.551 C344.168002,48.9063351 344.414999,49.3223309 344.597,49.799 C344.779001,50.275669 344.87,50.8259969 344.87,51.45 C344.87,52.1260034 344.735668,52.7586637 344.467,53.348 C344.198332,53.9373363 343.812669,54.4529978 343.31,54.895 C342.807331,55.3370022 342.20067,55.6836654 341.49,55.935 C340.77933,56.1863346 339.973338,56.312 339.072,56.312 C337.875994,56.312 336.766672,56.0866689 335.744,55.636 C334.721328,55.1853311 333.837337,54.5700039 333.092,53.79 L334.392,52.282 Z M360.967613,56.312 C359.892941,56.312 358.909284,56.1040021 358.016613,55.688 C357.123942,55.2719979 356.356949,54.6783372 355.715613,53.907 C355.074276,53.1356628 354.575948,52.1996722 354.220613,51.099 C353.865278,49.9983278 353.687613,48.7633402 353.687613,47.394 C353.687613,46.0246598 353.865278,44.7983387 354.220613,43.715 C354.575948,42.6316612 355.074276,41.7130038 355.715613,40.959 C356.356949,40.2049962 357.123942,39.6286687 358.016613,39.23 C358.909284,38.8313313 359.892941,38.632 360.967613,38.632 C362.042285,38.632 363.025942,38.8356646 363.918613,39.243 C364.811284,39.6503354 365.58261,40.2309962 366.232613,40.985 C366.882616,41.7390038 367.385278,42.6576613 367.740613,43.741 C368.095948,44.8243387 368.273613,46.0419932 368.273613,47.394 C368.273613,48.7633402 368.095948,49.9983278 367.740613,51.099 C367.385278,52.1996722 366.882616,53.1356628 366.232613,53.907 C365.58261,54.6783372 364.811284,55.2719979 363.918613,55.688 C363.025942,56.1040021 362.042285,56.312 360.967613,56.312 L360.967613,56.312 Z M360.967613,54.414 C361.730283,54.414 362.419277,54.249335 363.034613,53.92 C363.649949,53.590665 364.178611,53.1183364 364.620613,52.503 C365.062615,51.8876636 365.404945,51.1510043 365.647613,50.293 C365.890281,49.4349957 366.011613,48.468672 366.011613,47.394 C366.011613,46.3366614 365.890281,45.3833376 365.647613,44.534 C365.404945,43.6846624 365.062615,42.9653363 364.620613,42.376 C364.178611,41.7866637 363.649949,41.3316683 363.034613,41.011 C362.419277,40.6903317 361.730283,40.53 360.967613,40.53 C360.204942,40.53 359.515949,40.6903317 358.900613,41.011 C358.285277,41.3316683 357.756615,41.7866637 357.314613,42.376 C356.872611,42.9653363 356.530281,43.6846624 356.287613,44.534 C356.044945,45.3833376 355.923613,46.3366614 355.923613,47.394 C355.923613,48.468672 356.044945,49.4349957 356.287613,50.293 C356.530281,51.1510043 356.872611,51.8876636 357.314613,52.503 C357.756615,53.1183364 358.285277,53.590665 358.900613,53.92 C359.515949,54.249335 360.204942,54.414 360.967613,54.414 L360.967613,54.414 Z M378.313226,38.944 L380.471226,38.944 L380.471226,49.006 C380.471226,50.0286718 380.575225,50.8866632 380.783226,51.58 C380.991227,52.2733368 381.272891,52.8279979 381.628226,53.244 C381.983561,53.6600021 382.40389,53.9589991 382.889226,54.141 C383.374562,54.3230009 383.894556,54.414 384.449226,54.414 C385.021229,54.414 385.54989,54.3230009 386.035226,54.141 C386.520562,53.9589991 386.945224,53.6600021 387.309226,53.244 C387.673228,52.8279979 387.959225,52.2733368 388.167226,51.58 C388.375227,50.8866632 388.479226,50.0286718 388.479226,49.006 L388.479226,38.944 L390.559226,38.944 L390.559226,48.954 C390.559226,50.3233402 390.403227,51.4759953 390.091226,52.412 C389.779224,53.3480047 389.350229,54.1063304 388.804226,54.687 C388.258223,55.2676696 387.612563,55.6836654 386.867226,55.935 C386.121889,56.1863346 385.315897,56.312 384.449226,56.312 C383.582555,56.312 382.77223,56.1863346 382.018226,55.935 C381.264222,55.6836654 380.614229,55.2676696 380.068226,54.687 C379.522223,54.1063304 379.093227,53.3480047 378.781226,52.412 C378.469224,51.4759953 378.313226,50.3233402 378.313226,48.954 L378.313226,38.944 Z M403.770839,47.03 L406.630839,47.03 C407.965512,47.03 408.988169,46.7570027 409.698839,46.211 C410.409509,45.6649973 410.764839,44.8373389 410.764839,43.728 C410.764839,42.6013277 410.409509,41.8126689 409.698839,41.362 C408.988169,40.9113311 407.965512,40.686 406.630839,40.686 L403.770839,40.686 L403.770839,47.03 Z M410.972839,56 L406.864839,48.798 L403.770839,48.798 L403.770839,56 L401.612839,56 L401.612839,38.944 L406.942839,38.944 C407.80951,38.944 408.611168,39.0263325 409.347839,39.191 C410.084509,39.3556675 410.71717,39.6286648 411.245839,40.01 C411.774508,40.3913352 412.186171,40.8853303 412.480839,41.492 C412.775507,42.0986697 412.922839,42.8439956 412.922839,43.728 C412.922839,45.0626733 412.576176,46.1286627 411.882839,46.926 C411.189502,47.7233373 410.262178,48.2693319 409.100839,48.564 L413.416839,56 L410.972839,56 Z M422.182452,47.472 C422.182452,46.1026598 422.373117,44.8720055 422.754452,43.78 C423.135787,42.6879945 423.664448,41.7606705 424.340452,40.998 C425.016455,40.2353295 425.818114,39.6503354 426.745452,39.243 C427.67279,38.8356646 428.682446,38.632 429.774452,38.632 C430.814457,38.632 431.724448,38.8443312 432.504452,39.269 C433.284456,39.6936688 433.925783,40.1833306 434.428452,40.738 L433.206452,42.116 C432.755783,41.6306642 432.257455,41.2450014 431.711452,40.959 C431.165449,40.6729986 430.528455,40.53 429.800452,40.53 C428.985781,40.53 428.249122,40.6903317 427.590452,41.011 C426.931782,41.3316683 426.368454,41.790997 425.900452,42.389 C425.432449,42.987003 425.068453,43.7106624 424.808452,44.56 C424.54845,45.4093376 424.418452,46.3626614 424.418452,47.42 C424.418452,48.494672 424.544117,49.4609957 424.795452,50.319 C425.046786,51.1770043 425.397783,51.9093303 425.848452,52.516 C426.299121,53.1226697 426.849449,53.590665 427.499452,53.92 C428.149455,54.249335 428.881781,54.414 429.696452,54.414 C430.528456,54.414 431.252115,54.249335 431.867452,53.92 C432.482788,53.590665 433.067782,53.1226697 433.622452,52.516 L434.844452,53.842 C434.168448,54.6220039 433.405789,55.2286645 432.556452,55.662 C431.707114,56.0953355 430.736457,56.312 429.644452,56.312 C428.56978,56.312 427.577456,56.1126687 426.667452,55.714 C425.757447,55.3153313 424.968788,54.7390038 424.301452,53.985 C423.634115,53.2309962 423.11412,52.3036722 422.741452,51.203 C422.368783,50.1023278 422.182452,48.8586736 422.182452,47.472 L422.182452,47.472 Z M444.468065,38.944 L454.296065,38.944 L454.296065,40.764 L446.626065,40.764 L446.626065,46.12 L453.100065,46.12 L453.100065,47.966 L446.626065,47.966 L446.626065,54.154 L454.556065,54.154 L454.556065,56 L444.468065,56 L444.468065,38.944 Z" id="SOURCE" sketch:type="MSShapeGroup"></path>
        </g>
    </g>
</svg>