<?xml version="1.0" encoding="UTF-8" standalone="no"?>
<svg width="99px" height="133px" viewBox="0 0 99 133" version="1.1" xmlns="http://www.w3.org/2000/svg" xmlns:xlink="http://www.w3.org/1999/xlink" xmlns:sketch="http://www.bohemiancoding.com/sketch/ns">
    <!-- Generator: Sketch 3.3.2 (12043) - http://www.bohemiancoding.com/sketch -->
    <title>Shape</title>
    <desc>Created with Sketch.</desc>
    <defs></defs>
    <g id="Page-1" stroke="none" stroke-width="1" fill="none" fill-rule="evenodd" sketch:type="MSPage">
        <g id="about" sketch:type="MSArtboardGroup" transform="translate(-803.000000, -517.000000)" fill="#C4C4C4">
            <g id="zip8" sketch:type="MSLayerGroup" transform="translate(803.000000, 517.000000)">
                <path d="M75.1717241,0 L8.37744828,0 C3.89343103,0 0.240672414,3.65067949 0.240672414,8.13005128 L0.240672414,124.440256 C0.240672414,128.926449 3.89343103,132.572013 8.37744828,132.572013 L90.1924138,132.572013 C94.6815517,132.572013 98.3308966,128.926449 98.3308966,124.440256 L98.3308966,25.1387051 L75.1717241,0 L75.1717241,0 Z M77.0919828,12.1660897 L87.2428966,23.1863333 L77.0919828,23.1863333 L77.0919828,12.1660897 L77.0919828,12.1660897 Z M91.4964828,124.440256 C91.4964828,125.15641 90.9093103,125.744679 90.189,125.744679 L8.37744828,125.744679 C7.65884483,125.744679 7.07508621,125.15641 7.07508621,124.440256 L7.07508621,8.13005128 C7.07508621,7.41219231 7.65884483,6.83074359 8.37744828,6.83074359 L50.0479138,6.83074359 L50.0479138,9.75844872 L41.2061897,9.75844872 L41.2061897,14.6896795 L50.0479138,14.6896795 L50.0479138,24.3679872 L41.2061897,24.3679872 L41.2061897,29.2975128 L50.0479138,29.2975128 L50.0479138,38.5768205 L41.2061897,38.5768205 L41.2061897,43.5063462 L50.0479138,43.5063462 L50.0479138,43.876359 L50.0479138,44.1594103 L50.0479138,51.4590641 L41.2061897,51.4590641 L41.2061897,56.3902949 L50.0479138,56.3902949 L50.0479138,66.0686026 L41.2061897,66.0686026 L41.2061897,70.9998333 L50.0479138,70.9998333 L50.0479138,80.2774359 L41.2061897,80.2774359 L41.2061897,85.2069615 L45.9342931,85.2069615 C44.1266897,85.2973333 42.6877759,86.7756795 42.6877759,88.6001667 L42.6877759,90.5457179 L42.7150862,90.5457179 L42.7150862,105.293372 C42.7150862,109.12309 45.8352931,112.240064 49.6689828,112.240064 C53.5026724,112.240064 56.6211724,109.12309 56.6211724,105.293372 L56.6211724,90.5457179 L56.6245862,90.5457179 L56.6245862,88.6001667 C56.6245862,86.7177051 55.0952069,85.1899103 53.2107931,85.1899103 L53.1135,85.1899103 L53.1135,77.6225513 L61.2315,77.6225513 L61.2315,72.6913205 L53.1135,72.6913205 L53.1135,63.4137179 L61.2315,63.4137179 L61.2315,58.4824872 L53.1135,58.4824872 L53.1135,48.8024744 L61.2315,48.8024744 L61.2315,43.8729487 L53.1135,43.8729487 L53.1135,35.9202308 L61.2315,35.9202308 L61.2315,30.9907051 L53.1135,30.9907051 L53.1135,21.7113974 L61.2315,21.7113974 L61.2315,16.7818718 L53.1135,16.7818718 L53.1135,7.10185897 L61.2315,7.10185897 L61.2315,6.82903846 L70.2524483,6.82903846 L70.2524483,26.6 C70.2524483,28.4824615 71.7869483,30.0085513 73.673069,30.0085513 L91.4947759,30.0085513 L91.4947759,124.440256 L91.4964828,124.440256 Z M54.1086207,96.5955128 L54.1086207,104.834692 C54.1086207,107.308833 52.0996034,109.310654 49.6280172,109.310654 C47.1547241,109.310654 45.1474138,107.308833 45.1474138,104.834692 L45.1474138,96.5955128 L54.1086207,96.5955128 L54.1086207,96.5955128 Z" id="Shape" sketch:type="MSShapeGroup"></path>
            </g>
        </g>
    </g>
</svg>